<svg xmlns="http://www.w3.org/2000/svg" viewBox="0 0 800 1000">
  <defs>
    <linearGradient id="bg" x1="0" y1="0" x2="1" y2="1">
      <stop stop-color="#25f4ee"/>
      <stop offset=".45" stop-color="#171719"/>
      <stop offset="1" stop-color="#fe2c55"/>
    </linearGradient>
    <filter id="blur"><feGaussianBlur stdDeviation="28"/></filter>
  </defs>
  <rect width="800" height="1000" rx="64" fill="url(#bg)"/>
  <circle cx="150" cy="180" r="120" fill="#fff" opacity=".16" filter="url(#blur)"/>
  <circle cx="650" cy="780" r="170" fill="#fff" opacity=".14" filter="url(#blur)"/>
  <path d="M397 190c-72 0-117 57-117 128 0 48 23 88 62 111l-42 97-135 79c-31 18-42 58-24 89 18 30 58 41 89 23l104-61-23 170c-5 38 22 72 60 77 37 5 72-22 77-59l23-170 76 91c23 28 65 32 93 8 28-23 31-65 8-93L524 532l-68-105c37-22 59-61 59-109 0-71-46-128-118-128Z" fill="#fff" opacity=".94"/>
  <path d="m255 444 99 55m190-56-99 56" stroke="#171719" stroke-width="25" stroke-linecap="round"/>
  <text x="54" y="105" fill="#fff" font-family="Arial, sans-serif" font-size="34" font-weight="800" letter-spacing="5">SHORT-FORM CHALLENGE</text>
  <text x="50" y="932" fill="#fff" font-family="Arial, sans-serif" font-size="92" font-weight="900">꿍싯꿍싯</text>
</svg>
